<svg width="38" height="38" viewBox="0 0 38 38" fill="none" xmlns="http://www.w3.org/2000/svg">
<path d="M19 0C8.50403 0 0 8.50403 0 19C0 29.496 8.50403 38 19 38C29.496 38 38 29.496 38 19C38 8.50403 29.496 0 19 0ZM28.3161 23.9875C28.6762 24.3476 28.6762 24.9298 28.3161 25.2899L25.2823 28.3161C24.9222 28.6762 24.3399 28.6762 23.9798 28.3161L19 23.2903L14.0125 28.3161C13.6524 28.6762 13.0702 28.6762 12.7101 28.3161L9.68387 25.2823C9.32379 24.9222 9.32379 24.3399 9.68387 23.9798L14.7097 19L9.68387 14.0125C9.32379 13.6524 9.32379 13.0702 9.68387 12.7101L12.7177 9.67621C13.0778 9.31613 13.6601 9.31613 14.0202 9.67621L19 14.7097L23.9875 9.68387C24.3476 9.32379 24.9298 9.32379 25.2899 9.68387L28.3238 12.7177C28.6839 13.0778 28.6839 13.6601 28.3238 14.0202L23.2903 19L28.3161 23.9875Z" fill="black"/>
</svg>
